<svg version="1.0" width="466.667" height="466.667" viewBox="0 0 350 350"
  xmlns="http://www.w3.org/2000/svg">
  <g style="fill:#fff">
    <path d="M1620 3095v-285H840V1420l115 57 115 58v975h667l6-97c4-54 7-153 7-220v-122l40-32c32-26 40-39 40-66 0-18 5-33 10-33 6 0 10-22 10-50 0-27 5-50 10-50 6 0 10 23 10 50 0 38 4 50 15 50 10 0 15 10 15 34 0 28 8 40 45 70l45 37v429h660v-810H1593l-584-290-584-289 924-1h924l176 123c97 68 182 127 189 131 9 5 12-5 12-43v-50l-162-112c-90-62-164-113-165-114-4-2 35-856 39-860 1-2 193 144 425 324l422 326 1 408c0 324-3 407-12 401-7-4-79-52-160-106s-150-98-153-98-5 21-5 48v47l108 75 107 75-114 3-114 3 7 554 7 555h-771v570h-490v-285z" style="fill:#fff" transform="matrix(.1 0 0 -.1 0 350)"/>
    <path d="M280 1003c0-24 38-873 40-880 0-2 441-3 980-3h981l-6 98c-6 103-35 752-35 790v22H280v-27z" style="fill:#fff" transform="matrix(.1 0 0 -.1 0 350)"/>
  </g>
</svg>
