<svg version="1.0" width="1074.667" height="480" viewBox="0 0 806 360"
  xmlns="http://www.w3.org/2000/svg">
  <g style="fill:#fff">
    <path d="M3810 3315c-452-66-858-335-1100-730-248-403-294-932-119-1373 16-40 29-74 29-75s-46-1-102 1c-162 5-235-24-278-113-20-41-21-56-18-357l3-315 29-41c16-23 46-50 70-62 42-20 53-20 1709-20 1152 0 1674 3 1694 11 40 15 82 57 104 104 17 36 19 69 19 336 0 294 0 295-25 345-28 57-87 100-149 109-23 4-81 5-129 3s-87-1-87 2 18 56 40 117c57 164 80 283 87 463 8 232-23 418-106 632-200 510-668 881-1216 963-118 18-336 18-455 0zm505-190c259-58 483-176 667-353 202-194 331-419 396-695 23-99 26-133 26-292 1-235-23-354-111-562l-35-83H2824l-32 63c-82 165-122 353-122 571 0 234 41 417 136 609 207 420 586 690 1069 761 66 10 372-3 440-19zM4201 943l104-127 3 127c2 115 4 128 20 125 15-3 17-21 20-161 2-150 2-157-17-157-13 0-53 41-118 119-54 66-102 120-106 120-5 1-7-53-5-119 3-106 1-119-14-124-17-4-18 9-18 160 0 128 3 164 13 164 7 0 60-57 118-127zm-865 91c44-23 84-88 84-139 0-17-10-51-22-75-33-63-77-83-187-84l-86-1-3 150c-1 82 0 156 3 163 8 22 160 12 211-14zm306-100c3-124 3-126 31-150 39-33 81-31 118 5 29 29 29 30 29 150 0 114 1 121 20 121s20-7 20-115c0-172-27-217-130-217-54 1-91 21-109 60-6 13-11 79-11 147 0 101 3 125 14 125 12 0 15-25 18-126zm1115 103c13-13 14-20 6-28-9-9-21-7-49 6-42 20-79 13-98-17-17-28 2-49 74-84 35-17 72-41 82-54 43-53 1-134-76-145-33-5-55-2-90 13-49 22-55 32-31 52 12 10 20 8 41-9 29-23 74-27 105-11 13 7 19 21 19 45 0 32-4 35-67 65-92 43-103 54-103 106 0 35 5 47 28 64 22 18 37 21 85 18 36-3 64-11 74-21zm155-14c27-24 24-87-4-107-50-36-108-4-108 58 0 57 69 88 112 49zM3560 845c0-24-3-25-60-25s-60 1-60 25 3 25 60 25 60-1 60-25zm450 0c0-24-3-25-54-25-56 0-72 9-62 35 4 11 22 15 61 15 52 0 55-1 55-25zm505 0c0-17-8-20-57-23-57-3-58-2-58 23s1 26 58 23c49-3 57-6 57-23zM3440 637c24-8 36-19 38-34 4-27 5-27-44-7-58 24-136 15-174-21-98-94-34-245 104-245 19 0 46 4 60 10 23 8 26 15 26 55v45h-46c-38 0-45 3-42 18 3 14 16 18 66 20l63 3-3-78c-3-75-4-78-33-93-17-8-58-15-96-15-83 0-135 31-169 100-74 153 78 300 250 242zm150-162c0-168-1-175-20-175s-20 7-20 175 1 175 20 175 20-7 20-175zm230 160c19-10 27-20 24-30-7-18-26-19-41-4-5 5-30 9-54 7-34-2-46-8-56-27-16-33-1-59 45-78 80-33 100-45 111-69 18-40 13-71-17-105-36-40-100-49-151-21-39 21-45 31-32 51 7 12 14 10 36-8 39-30 88-28 114 5 12 15 21 33 21 40 0 19-47 52-92 66-44 13-88 59-88 91 1 31 23 68 51 83 32 18 93 17 129-1zm-1009-24c38-38 40-91 4-126-13-14-29-25-34-25-6 0 14-32 44-71 60-77 65-89 36-89-11 0-37 25-67 66-49 66-70 84-98 84-13 0-16-14-16-75 0-68-2-75-20-75-19 0-20 7-20 170v170h71c65 0 73-2 100-29zm309 14c0-12-16-15-80-15h-80V490h75c60 0 75-3 75-15s-15-15-75-15h-75V330h85c69 0 85-3 85-15s-18-15-105-15h-105v340h100c82 0 100-3 100-15zm1020 0c0-12-13-15-55-15h-55V455c0-148-1-155-20-155s-20 7-20 155v155h-60c-49 0-58 3-54 15 5 12 30 15 135 15 108 0 129-2 129-15zm230 0c0-12-16-15-85-15h-85V490h80c63 0 80-3 80-15 0-11-18-15-77-17l-78-3V335l87-3c72-2 86-5 81-17-4-12-27-15-109-15h-104v340h105c87 0 105-3 105-15zm211-14c38-38 40-91 4-126-13-14-29-25-34-25-6 0 14-32 44-71 60-77 66-92 35-87-11 2-44 34-73 73-39 53-59 71-79 73l-28 3v-75c0-69-2-76-20-76-19 0-20 7-20 170v170h71c65 0 73-2 100-29zm309 14c0-12-16-15-80-15h-80V490h75c60 0 75-3 75-15s-15-15-75-15h-75V330h85c69 0 85-3 85-15s-18-15-105-15h-105v340h100c82 0 100-3 100-15zm271-5c97-50 116-190 37-267-45-43-76-53-169-53h-79v340h85c67 0 95-5 126-20zm197-17 10-28 7 28c11 43 35 34 35-13 0-38-19-58-21-22-1 16-2 16-6 0-6-25-22-22-33 5l-9 22v-22c-1-35-21-27-21 7 0 17-4 30-10 30-5 0-10-13-10-30 0-16-4-30-10-30-5 0-10 12-10 26 0 15-8 33-17 40-16 12-11 13 34 14 47 0 52-2 61-27z" style="fill:#fff" transform="matrix(.1 0 0 -.1 0 360)"/>
    <path d="m3832 3012-43-3 3-122c3-118 4-122 26-125 21-3 22 0 22 52 0 72 18 74 62 6 27-40 38-50 61-50h29l-37 51-37 50 21 23c24 26 28 78 7 95s-66 26-114 23zm78-47c18-21 8-48-21-59-41-14-59-2-59 39 0 33 2 35 34 35 18 0 39-7 46-15zM4095 2904c-30-64-55-119-55-120 0-2 9-4 20-4 12 0 26 12 35 31 15 28 20 30 63 27s47-5 56-35c6-22 15-33 27-33 11 0 19 5 19 10 0 8-60 222-64 226 0 1-11 5-23 8-21 7-27-3-78-110zm90 4c7-37 7-38-24-38-36 0-36 1-14 58 18 48 26 43 38-20zM4380 2863c-23-58-38-109-33-113 17-14 94-40 122-40 67 0 124 95 101 166-12 35-37 53-111 79l-38 14-41-106zm110 42c46-24 55-49 35-102s-49-68-97-51c-18 6-35 12-37 14-6 6 53 154 62 154 4 0 21-7 37-15zM3540 2923c-36-15-66-27-67-28-2-1 17-51 41-111 50-123 45-120 136-76 81 40 98 94 41 131-19 11-25 23-23 41 3 29-15 56-43 63-11 3-49-6-85-20zm74-19c9-3 16-17 16-30 0-18-9-27-36-39-48-20-48-20-61 14-10 28-9 30 26 45 20 8 37 15 38 15 1 1 8-2 17-5zm54-96c25-25 13-49-34-69-25-12-47-19-48-17-8 13-26 61-23 64 6 6 72 33 83 34 5 0 15-5 22-12zM4686 2778c-23-32-20-47 18-107 39-60 37-81-6-81-22 0-33 7-46 30-18 32-52 41-52 14 0-9 15-31 34-50 44-44 94-47 125-8 28 35 27 49-10 105-48 75-26 117 32 60 17-17 37-31 45-31 17 0 17 2 2 35-24 54-114 74-142 33zM3815 2640c4-6 11-8 16-5 14 9 11 15-7 15-8 0-12-5-9-10zM3868 2643c6-2 18-2 25 0 6 3 1 5-13 5s-19-2-12-5zM3113 2625c-43-30-31-96 21-109 17-4 26-15 31-36 8-34 39-60 73-60 31 0 72 46 72 81 0 18 5 29 14 29 7 0 21 11 30 25l16 25h-36c-25 0-42 7-55 23-16 19-20 20-29 7-5-8-8-20-6-27 3-6-2-14-10-17-23-9-24-8-24 14 0 25-34 60-58 60-10 0-27-7-39-15zm55-48c2-11-3-17-17-17-23 0-35 15-26 31 10 15 39 6 43-14zm100-74c-2-21-9-29-27-31-40-6-58 43-18 51 46 9 48 8 45-20zM4009 2622c-1-4-1-10 0-14 0-5-9-8-21-8-16 0-19-3-11-11 9-9 18-6 37 9 21 16 23 21 11 26-8 3-16 2-16-2zM4925 2619c-4-6 2-21 14-33s21-25 21-29c0-5-57-51-139-113-13-10-13-14-2-28s22-9 92 45l79 60 24-28c19-21 27-25 36-16 10 9 0 28-41 82-53 69-71 82-84 60zM3715 2594c-15-14-25-28-22-31 9-9 28 8 21 19-4 6-1 8 7 6 8-3 13-11 12-17-2-6 2-11 8-11s9 7 5 15c-3 8 4 21 17 30 21 15 21 15 1 15-12 0-33-11-49-26zM3795 2610c-3-5-1-10 4-10 6 0 11 5 11 10 0 6-2 10-4 10-3 0-8-4-11-10zM4036 2595c-11-8-15-15-9-15s16 7 23 15c16 19 11 19-14 0zM3815 2587c-17-13-17-14 1-19 14-4 20 0 20 13 0 11-1 19-1 19-1 0-9-6-20-13zM4065 2568c21-12 23-12 28-1 1 3-9 8-23 9-23 4-24 3-5-8zM3780 2563c0-6 9-18 20-26s17-17 13-20c-3-4-12-2-20 5-14 12-26 6-29-16-1-7 4-13 12-13 10 0 11 4 3 14-8 9-8 13-1 13 6 0 14-5 17-10 4-7 11-8 18-1 7 5 23 11 37 14 23 4 22 4-5 6-24 1-27 3-15 12 12 8 10 9-7 4-15-4-25 0-32 12-6 10-11 13-11 6zM3978 2547c-7-8-20-17-28-20-8-4-3-5 13-2 26 5 39-9 15-17-8-3-7-6 3-10 12-5 15 2 15 28-1 39 0 38-18 21zM3871 2546c2-2 15-9 29-16 23-12 24-12 11 3-7 10-20 17-29 17-8 0-13-2-11-4zM3638 2518c-13-13-19-20-14-15 6 4 18 7 27 7 21 0 34 16 20 24-5 4-20-4-33-16zM4110 2525c-7-8-15-13-19-11-4 3-7-4-7-14 0-17 18-21 32-7 4 4 13 2 20-4 8-7 14-7 19 1 3 5 4 11 1 11-3 1-10 3-16 4-5 1-15 3-21 4-5 0-7 6-4 11 4 6 11 7 17 4 7-4 8-2 4 4-9 15-11 15-26-3zM3635 2491c-3-5 6-21 20-35s25-20 25-14c0 7 7 3 15-8 13-16 14-16 9-1-3 9-1 17 5 17s11-6 11-12c0-7 5-5 11 5s8 21 5 24c-3 4-6 2-6-4 0-5-10-9-22-8-13 2-22 7-21 12 1 6-8 10-20 9-13-1-21 4-19 12 2 14-4 16-13 3zM4028 2454c9-12 19-20 21-18s-1 10-7 17c-7 8-10 16-7 19 3 2-1 5-9 5-12 0-11-5 2-23zM4063 2442c-1-22 0-24 9-8 6 10 6 22 2 26-5 5-10-3-11-18zM4160 2465c0-5 5-17 10-25s10-10 10-5c0 6-5 17-10 25s-10 11-10 5zM3570 2331v-105l82-85c45-47 159-165 252-261 94-96 196-201 226-233l55-58-80-74c-93-88-138-114-205-122-95-11-205 68-229 163-24 94-1 158 89 249l60 60-41 48c-22 26-44 47-48 47-5 0-41-33-81-72-48-49-82-95-103-138-29-58-32-74-32-155 0-82 3-97 32-156 39-79 102-140 181-177 48-23 71-27 147-27s99 4 146 26c49 23 83 51 234 191l40 37 75-74 76-75 49 50 49 50-115 118c-64 64-210 214-325 332s-282 289-371 380l-163 165v-104zM4176 2403c-6-14-5-15 5-6 7 7 10 15 7 18s-9-2-12-12zM4056 2397c3-10 9-15 12-12s0 11-7 18c-10 9-11 8-5-6zM5011 2340c-80-39-102-53-97-66 3-8 6-17 6-19s21 5 46 17c64 28 73 11 33-59-20-34-28-60-24-73 9-30 17-25 48 31 22 38 33 49 45 44 39-16 53-16 76-1 14 8 28 25 31 37 8 24-34 139-50 139-5-1-57-23-114-50zm119-26c15-38 12-52-11-65-17-9-25-7-45 12-31 29-30 45 4 63 37 21 41 20 52-10zM4061 2302c-1-19-5-31-11-27-5 3-10 2-10-4 0-5 4-13 10-16 11-7 24 36 17 62-3 10-5 3-6-15zM4177 2309c4-13 8-18 11-10 2 7-1 18-6 23-8 8-9 4-5-13zM4151 2294c0-11 3-14 6-6 3 7 2 16-1 19-3 4-6-2-5-13zM4166 2263c-6-14-5-15 5-6 7 7 10 15 7 18s-9-2-12-12zM2870 2242c0-14 18-23 77-41 88-25 86-29-25-56-72-17-106-37-99-58 2-6 52-26 112-44 84-26 110-30 117-21 13 22 10 25-71 49-44 13-77 27-73 30 4 4 41 14 82 24 92 22 110 31 110 54 0 14-22 25-103 49-120 37-127 38-127 14zM3986 2210l-39-38 39-46c41-49 42-50 61-38 12 8 13 29 0 49-4 6-4 13 0 16 5 2 3 3-2 1-6-1-19 4-29 12-11 7-22 11-27 9-4-3-10-1-14 4-3 6 8 17 25 26 16 8 30 20 30 26s5 7 12 3 8-3 4 4c-10 17-16 14-60-28zm4-45c13-1 45-24 44-32-1-4 2-7 6-6 5 1 7-5 6-15-4-26-19-21-54 19-33 38-41 56-19 42 6-4 14-8 17-8z" style="fill:#fff" transform="matrix(.1 0 0 -.1 0 360)"/>
    <path d="M4016 2117c3-10 9-15 12-12s0 11-7 18c-10 9-11 8-5-6zM4074 2230c1-7 5-11 10-10 4 1 16-9 27-21 10-12 21-20 24-17 3 2-4 14-15 26-12 13-16 22-9 22s9 3 6 6c-4 4-13 2-21-5-10-8-16-9-19-1-4 7-5 7-3 0zM4133 2227c-3-5 0-14 6-20 9-9 10-7 5 7-5 13-4 17 4 12 6-3 13-3 16 2s-2 9-10 9-17-4-21-10zM4362 2224c10-10 20-15 24-12 3 4-5 12-18 18-22 12-22 12-6-6zM4030 2205c-20-24-6-28 15-5 10 11 13 20 8 20-6 0-16-7-23-15zM4330 2210c8-5 20-10 25-10 6 0 3 5-5 10s-19 10-25 10c-5 0-3-5 5-10zM4417 2199c7-7 15-10 18-7s-2 9-12 12c-14 6-15 5-6-5zM4052 2185c-7-8-9-15-4-15s15 7 22 15c16 19-1 19-18 0zM4310 2175c0-8 2-15 4-15s6 7 10 15c3 8 1 15-4 15-6 0-10-7-10-15zM4396 2183c-14-14-4-23 18-17 20 5 33-2 67-38 40-40 41-41 19-8-13 19-24 36-25 37-4 8-74 31-79 26zM4358 2173c7-3 16-2 19 1 4 3-2 6-13 5-11 0-14-3-6-6zM4100 2155c-7-8-17-12-23-8s-7 1-3-6c6-9 13-8 27 5 10 9 19 19 19 21 0 7-8 2-20-12zM4358 2153c7-3 16-2 19 1 4 3-2 6-13 5-11 0-14-3-6-6zM4316 2142c-2-4 4-8 14-8s16 4 14 8c-3 4-9 8-14 8s-11-4-14-8zM4280 2120c0-5 5-10 10-10 6 0 10 5 10 10 0 6-4 10-10 10-5 0-10-4-10-10zM4370 2116c0-8 5-18 10-21 6-3 10 1 10 9s-4 18-10 21c-5 3-10-1-10-9zM4336 2095c4-8 11-15 16-15 6 0 5 6-2 15-7 8-14 15-16 15s-1-7 2-15zM4483 2077c0-12 1-17 4-10 2 7 12 9 21 6 18-6 17-5-8 14-13 10-16 8-17-10zM5117 2075c-54-7-99-14-101-16s1-41 7-87c8-68 13-82 26-80 16 3 17 16 8 113-2 16 5 21 29 23 35 3 44-12 44-75 0-26 4-33 19-33 17 0 19 6 14 60l-6 60h30c30 0 31-1 37-60 6-47 11-60 24-60 16 0 17 8 8 85-7 68-12 85-25 84-9-1-60-7-114-14zM4525 2050c3-5 8-10 11-10 2 0 4 5 4 10 0 6-5 10-11 10-5 0-7-4-4-10zM4385 2030c3-5 8-10 11-10 2 0 4 5 4 10 0 6-5 10-11 10-5 0-7-4-4-10zM4520 1992c0-4 9-13 20-20 23-14 26-7 6 14-16 15-26 18-26 6zM4428 1915c-3-14-1-25 3-25 5 0 9 11 9 25s-2 25-4 25-6-11-8-25zM4552 1920c0-14 2-19 5-12 2 6 2 18 0 25-3 6-5 1-5-13zM2818 1903c-10-2-18-13-18-24 0-17 8-19 95-19 83 0 96-2 105-19 14-28 12-57-6-75-12-12-37-16-105-16-82 0-89-1-89-20s7-20 94-20c78 0 97 3 118 20 52 41 42 141-17 166-32 13-138 17-177 7zM4478 1893c-2-5-1-24 3-43l6-35 2 43c1 39-3 52-11 35zM4445 1881c-4-8-2-17 6-22 12-8 12-11-1-19s-12-10 3-10c18 0 20 13 8 44-6 15-10 16-16 7zM4541 1874c0-11 3-14 6-6 3 7 2 16-1 19-3 4-6-2-5-13zM4501 1852c-1-18 3-31 8-27 5 3 11-3 13-12 3-15 5-14 10 4 3 13 2 21-5 20-5-1-14 9-18 23-6 23-7 23-8-8z" style="fill:#fff" transform="matrix(.1 0 0 -.1 0 360)"/>
    <path d="M4521 1864c0-11 3-14 6-6 3 7 2 16-1 19-3 4-6-2-5-13zM4376 1802c-11-15-16-24-11-20 4 5 13-2 19-13 6-12 14-21 19-20 9 1 9 11 0 10-13-1-21 36-10 49 5 7 8 14 6 16s-13-8-23-22zM5040 1725c0-78 2-85 20-85s20 7 20 65v65h60v-60c0-53 2-60 20-60s20 7 20 60v60h60v-65c0-58 2-65 20-65 22 0 25 23 14 118l-7 52h-227v-85zM4494 1772c3-6 2-13-4-17-5-3-10 0-10 7 0 8-5 6-11-4-5-10-15-18-20-18-6 0-7 5-3 12s3 8-5 4c-15-10-3-29 14-22 8 3 15 1 17-4 2-4 11 2 21 15 12 17 14 26 5 31-6 4-8 3-4-4zM4354 1763c3-6 2-13-2-15-5-1 0-12 10-23 19-20 19-20 12 0-7 19-6 19 12 3 14-12 23-14 34-7 13 9 13 10 0 6-8-2-28 7-44 22-16 14-26 21-22 14zM4441 1711c-8-6-9-11-3-15 6-3 14-1 17 5 9 14 2 20-14 10zM4413 1685c0-8 4-12 9-9s6 10 3 15c-9 13-12 11-12-6zM2903 1601c-24-11-48-31-54-45-13-27-4-152 11-161 5-3 59 4 120 16l111 22-6 51c-8 55-25 95-49 115-27 22-88 23-133 2zm102-33c25-11 56-81 42-94-7-7-123-33-148-34-11 0-19 12-23 36-9 45 12 80 57 93 44 13 43 13 72-1zM5207 1523c-2-5-7-20-11-35l-6-27-68 20c-37 11-82 23-101 26-29 5-33 3-29-13 2-14 25-25 93-45 50-15 89-31 88-36-1-4-4-20-8-34-5-19-2-28 9-32 12-5 21 11 41 76 14 46 25 88 25 95 0 13-26 17-33 5zM3160 895V770h55c107 0 155 39 155 125s-48 125-155 125h-55V895zM4832 1008c-7-7-12-24-12-38 0-32 17-50 47-50 21 0 22 2 11 20-16 25-25 25-31 3-3-10-5 1-6 25-1 42 0 43 27 40 24-3 27-7 24-35-1-18 2-33 8-33 14 0 13 53-2 68-7 7-21 12-33 12s-26-5-33-12z" style="fill:#fff" transform="matrix(.1 0 0 -.1 0 360)"/>
    <path d="M4858 983c7-3 16-2 19 1 4 3-2 6-13 5-11 0-14-3-6-6zM2680 545v-65h35c39 0 85 36 85 65s-46 65-85 65h-35v-65zM4450 545v-65h35c41 0 85 36 85 69 0 28-47 61-86 61h-34v-65zM4990 470V330h33c64 1 111 18 145 54 28 31 32 43 32 90 0 90-56 136-167 136h-43V470z" style="fill:#fff" transform="matrix(.1 0 0 -.1 0 360)"/>
  </g>
</svg>
