<svg xmlns="http://www.w3.org/2000/svg" viewBox="78.75 8.76 542.5 542.5"><path d="M603.75 360.36v-92.73l-40.129-40.129h-50.996L490 250.13v-88.254l70-52.5V8.756H367.5v100.62l70 52.5v56.875H323.75v-52.5h17.5v-52.5H78.75v52.5h17.5v194.11c-10.16 3.625-17.5 13.25-17.5 24.641v166.25h542.5v-166.25c0-11.391-7.34-21.016-17.5-24.641zM519.871 245h36.504l29.875 29.871v83.879h-192.5v-87.5h99.871zm-406.12 61.25h192.5v52.5h-192.5zm210-35h52.5v87.5h-52.5zm148.75-105v87.5h-17.5v-87.5zm-87.5-140h157.5v74.375l-64.164 48.125h-29.172l-64.164-48.125zm52.5 210v17.5h-113.75v-17.5zm-341.25-105h227.5v17.5h-227.5zm210 35v122.5h-192.5v-122.5zm-201.25 210h490c4.828 0 8.75 3.922 8.75 8.75v8.75h-507.5V385c0-4.828 3.922-8.75 8.75-8.75zm148.75 122.5h-35v-52.5h35zm-52.5-70v70h-17.5v-70h-70v70h-17.5v-87.5h210v87.5h-35v-70zm-35 70h-35v-52.5h35zm280-52.5h-122.5v-35h122.5zm-122.5 17.5h122.5v35h-122.5zm140-52.5h61.25v87.5h-61.25zm78.75 0h61.25v87.5h-61.25zm-446.25 122.5v-17.5h507.5v17.5z" style="fill:#fff"/><path d="M288.75 271.25v-87.5h-157.5v87.5zm-140-70h122.5v52.5h-122.5zM131.25 323.75h17.5v17.5h-17.5zM166.25 323.75h17.5v17.5h-17.5zM201.25 323.75h17.5v17.5h-17.5zM568.75 341.25v-52.5h-157.5v52.5zm-140-35h122.5v17.5h-122.5z" style="fill:#fff"/></svg>