<svg xmlns="http://www.w3.org/2000/svg" xml:space="preserve" viewBox="57.64 39.03 480.45 398.01">
  <path fill="#00539F" d="M168.875 192.184v-42.617H57.644v42.617h25.519v91.16H57.644v42.617h111.231v-42.617h-25.519v-91.16zm122.75 25.066c-6.875-2-42.25-12.125-48.375-14.125s-11.125-4.875-11.125-8.5 5.625-7.5 17-7.5c35.875 0 53.109 22.125 53.109 22.125s1.942 2.587 2.593 3.515h34.612v-60.363h-37.157v10.982c-2.838-1.96-23.79-15.634-56.282-15.634-42.875 0-66.75 22.25-66.75 55.5s30.125 47 38.5 50.5 41.125 12.75 55.125 17.125 19.125 7.5 19.125 9.75-6.125 8.125-23.625 8.125c-30.483 0-46.181-17.976-48.936-21.457v-.027c-.876-1.174-1.904-2.563-2.253-3.086a219.843 219.843 0 0 0-1.991-2.876h-34.612v64.461h38.856v-13.461c4.521 3.009 27.664 17.446 55.436 17.446 31 0 70.5-13.5 70.5-55.625s-46.875-54.875-53.75-56.875zm152.41-70.093c-51.678 0-94.062 25.838-94.062 91.795s46.011 90.662 94.288 90.662 93.835-24.479 93.835-89.981-45.556-92.476-94.061-92.476zm.454 138.486c-17.68 0-29.013-4.08-29.013-46.917 0-42.838 8.387-47.371 29.692-47.371 12.919 0 28.559.906 28.559 46.011s-11.558 48.277-29.238 48.277zM131.76 130.114a194.665 194.665 0 0 1 42.28-44.988 171.326 171.326 0 0 0 21.061 13.295c-12.398 13.82-23.506 29.131-25.346 31.693h7.439c4.465-6.018 13.701-18.124 23.44-28.857 10.645 5.233 21.958 9.513 33.762 12.773a255.222 255.222 0 0 0-6.911 16.084h6.463a256.73 256.73 0 0 1 6.376-14.547c15.058 3.679 30.836 5.741 46.977 6.055v8.493h6v-8.464c16.023-.117 31.714-1.943 46.719-5.374a257.153 257.153 0 0 1 6.04 13.837h6.463a255.668 255.668 0 0 0-6.543-15.296c12.015-3.126 23.544-7.294 34.402-12.445 9.366 10.448 18.122 21.932 22.433 27.741h7.438c-1.783-2.483-12.316-17.006-24.285-30.505 8.229-4.253 16.031-9.092 23.324-14.483a194.644 194.644 0 0 1 42.28 44.988h7.217c-35.488-54.771-97.142-91.087-167.124-91.087s-131.636 36.316-167.124 91.087h7.219zm105.313-21.571c-11.228-3.033-22.001-7.009-32.157-11.873a158.06 158.06 0 0 1 4.122-4.138c13.907-13.411 36.781-28.137 41.795-31.307 4.069 2.235 8.509 4.125 13.232 5.625-3.668 4.81-10.87 14.574-18.713 26.959-3.053 4.82-5.834 9.886-8.279 14.734zm50.228 7.077c-15.196-.304-30.054-2.196-44.256-5.564 2.221-4.342 4.699-8.81 7.376-13.036 9.036-14.267 17.188-24.979 19.904-28.464a92.44 92.44 0 0 0 16.976 2.341v44.723zm6 .03V70.965a93.68 93.68 0 0 0 16.856-1.799c3.104 4.015 10.872 14.339 19.431 27.854 2.816 4.447 5.413 9.161 7.722 13.716-14.152 3.13-28.924 4.802-44.009 4.914zm50.024-6.335c-2.537-5.08-5.454-10.43-8.669-15.506-7.438-11.746-14.302-21.136-18.119-26.178 5.023-1.411 9.765-3.245 14.119-5.464 7.039 4.512 27.483 17.992 40.314 30.365a163.81 163.81 0 0 1 5.153 5.218c-10.368 4.787-21.358 8.662-32.798 11.565zm60.943-27.94c-7.039 5.081-14.56 9.633-22.479 13.635a179.69 179.69 0 0 0-6.654-6.797c-12.001-11.573-29.87-23.714-38.625-29.415 2.974-1.928 5.694-4.06 8.119-6.381 21.671 6.192 41.79 16.093 59.639 28.958zM291.667 45.027c15.844 0 31.243 1.933 45.988 5.551-11.19 9.089-27.957 14.421-45.988 14.421-18.113 0-34.834-5.315-46.009-14.416a192.755 192.755 0 0 1 46.009-5.556zm-52.965 7.39a53.864 53.864 0 0 0 6.476 5.294c-7.932 5.104-27.469 18.125-40.304 30.501a173.45 173.45 0 0 0-5.567 5.642c-7.099-3.717-13.869-7.88-20.24-12.479 17.846-12.865 37.964-22.765 59.635-28.958zm212.88 293.53a194.656 194.656 0 0 1-41.243 44.185c-7.593-5.71-15.743-10.814-24.362-15.272 10.383-11.712 19.686-24.194 23.13-28.912h-7.472c-4.606 6.15-12.669 16.583-21.245 26.15-10.858-5.153-22.386-9.324-34.403-12.449a257.026 257.026 0 0 0 5.914-13.701h-6.482a256.865 256.865 0 0 1-5.396 12.248c-14.996-3.426-30.685-5.251-46.721-5.367v-6.881h-6v6.908c-16.154.313-31.931 2.373-46.98 6.047a256.043 256.043 0 0 1-5.73-12.955h-6.483a255.9 255.9 0 0 0 6.283 14.49c-11.807 3.261-23.124 7.535-33.768 12.771-8.944-9.859-17.461-20.872-22.248-27.262h-7.472c3.558 4.875 13.385 18.057 24.197 30.107-7.787 4.17-15.181 8.869-22.106 14.077a194.612 194.612 0 0 1-41.243-44.185h-7.206c35.489 54.771 97.141 91.087 167.122 91.087 69.98 0 131.633-36.315 167.122-91.087h-7.208zm-108.254 19.208c11.444 2.902 22.434 6.776 32.803 11.565a165.364 165.364 0 0 1-5.16 5.226c-12.791 12.333-33.17 25.782-40.262 30.33-4.354-2.228-9.102-4.062-14.141-5.473 3.824-5.051 10.67-14.423 18.088-26.136 3.217-5.077 6.134-10.43 8.672-15.512zm-50.027-6.327c15.097.112 29.869 1.779 44.012 4.905-2.31 4.558-4.907 9.273-7.726 13.724-8.547 13.496-16.303 23.809-19.416 27.836-5.4-1.076-11.058-1.683-16.871-1.779v-44.686zm-6 .03v44.718a92.928 92.928 0 0 0-16.997 2.32c-2.735-3.511-10.861-14.193-19.883-28.439-2.679-4.229-5.159-8.7-7.381-13.046 14.194-3.364 29.052-5.25 44.261-5.553zm-50.231 7.071c2.446 4.851 5.229 9.917 8.282 14.739 7.837 12.375 15.034 22.133 18.705 26.947-4.73 1.499-9.165 3.391-13.232 5.632-5.033-3.184-27.887-17.899-41.786-31.301a158.365 158.365 0 0 1-4.126-4.142c10.154-4.866 20.926-8.843 32.157-11.875zm-59.09 27.964c6.687-4.916 13.817-9.348 21.318-13.277a173.895 173.895 0 0 0 5.575 5.649c12.832 12.373 32.363 25.391 40.298 30.497-2.827 1.979-5.404 4.155-7.694 6.517-21.642-6.342-41.717-16.382-59.497-29.386zm113.687 37.141a192.715 192.715 0 0 1-47.437-5.906c11.086-9.742 28.69-15.649 47.437-15.649 18.724 0 36.345 5.911 47.432 15.65a192.68 192.68 0 0 1-47.432 5.905zm54.186-7.755c-2.722-2.805-5.833-5.363-9.304-7.626 8.77-5.711 26.603-17.833 38.586-29.389a179.906 179.906 0 0 0 6.657-6.801c8.323 4.21 16.211 9.026 23.561 14.429-17.781 13.006-37.857 23.046-59.5 29.387z" style="fill:#fff"/>
</svg>
