<svg version="1.0" width="682.667" height="682.667" viewBox="0 0 512 512" xmlns="http://www.w3.org/2000/svg"><path d="M28.9 8.4c-8.1 2.2-13.5 7.1-17.4 15.9C-3.4 58 4.8 97.2 31.8 122.1c3.8 3.5 11.1 8.9 16.2 11.9 13.3 7.9 19 15.5 21 27.6 1.1 6.9.1 12.8-4.2 24.4-5 13.2-6.2 19.7-6.1 33 .3 30.4 16.2 57.6 42.8 73.2 12 7 17.9 13.8 20.9 23.8 2.3 7.7 2 14.1-1 22.8-3.5 10.1-3.5 16.4.1 23.7 4.6 9.5 12.8 14 24 13.3 12.2-.8 19.5-8 25.2-25.3 2.5-7.4 2.7-9.3 2.7-25 .1-16.6 0-17.2-3.2-26.5-1.8-5.2-5.4-13.1-8-17.5-6.4-10.8-19.1-23.5-30.2-29.9-11.2-6.6-15.4-10.5-19.1-18.2-4.7-9.4-5.1-18.3-1.4-28.4 6-16.7 7.6-23.3 8.2-34.5 1.5-32.1-14.6-61.2-43.7-78.5-14.6-8.7-20.1-16.9-20.8-31-.3-7.3 0-9.6 2.2-15.9 5.5-15.6 1.8-27.9-10-34.3-6.1-3.2-12.5-4.1-18.5-2.4zm9.4 17.8c5.2 2.7 5.8 6.4 2.6 14.8-2.7 6.9-3.6 21.2-1.9 29.3 2.9 14.2 12.9 27.1 27.4 35.5 21.9 12.6 35 33.3 36.3 57.4.7 11.8-.6 18.8-5.9 32.7-10.9 28.7-1.8 54 24.8 69.3 10.2 5.9 18.1 13.1 23.9 21.9 11.7 17.5 14.9 39.8 8.6 60-3.5 11-7.9 14.6-14.2 11.4-5-2.7-5.5-5.7-2.2-15.5 5.3-16 3.3-32-5.6-45.7-5.1-7.7-9.9-12.1-20-18.2-14.9-9.2-22.4-16.8-28.8-29.6-10-19.7-10.5-38.6-1.7-60.5 3.3-8.3 3.8-10.8 4.2-19.6.9-21.7-8-37.3-28.3-49.4-12.2-7.2-22.7-17.9-28.3-28.6-7.5-14.6-10-31.5-6.7-46.7 3.3-15.7 8.9-22.2 15.8-18.5zM208.7 9.4c-5 1.8-7.6 4.2-9.8 9.1-1.7 3.6-1.9 7.1-1.9 36s.2 32.4 1.9 36c3.9 8.6 8.7 10.5 26.6 10.5H239v43.7l28.6 48.9c15.7 26.9 29.2 49.9 30 51.2.9 1.3 3.1 3.3 5 4.4l3.4 2V323c0 44.2.4 72.9 1 74.4 1.1 2.9 29.9 22.6 33 22.6 1 0 8.6-4.5 16.9-9.9 13.6-9.1 15.1-10.3 16-13.8.7-2.5 1.1-27.9 1.1-74.5v-70.7l3-1.6c3.8-2 3.9-2.1 36.6-58l26.9-46 .3-22.3.3-22.2h12.7c7 0 14.5-.5 16.7-1.1 5-1.4 10-6.4 11.4-11.4 1.5-5.4 1.5-62.6 0-68-1.4-5-6.4-10-11.4-11.4-2.8-.8-41.8-1.1-131-1.1-104.5.1-127.7.3-130.8 1.4zM231 35c0 9.4.2 10.3 2.5 12.5 3.3 3.4 8.3 3.4 11.6-.1 2.1-2.3 2.4-3.6 2.7-12.5l.4-9.9h15.6l.4 9.9c.3 8.9.6 10.2 2.7 12.5 3.3 3.5 8.3 3.5 11.6.1 2.3-2.2 2.5-3.1 2.5-12.5V25h17v10c0 9.4.2 10.3 2.5 12.5 2.4 2.5 6.5 3.2 10 1.9 3.1-1.2 4.5-5.9 4.5-15.4v-9.1l8.3.3 8.2.3.3 10c.2 8.6.6 10.3 2.4 12.2 2.8 3 8.3 3.1 11.5.1 2.1-2 2.3-3 2.3-12.5V25h16.8l.4 10.6c.3 9.7.5 10.7 2.7 12.5 3 2.4 8.2 2.4 11.2 0 2.2-1.8 2.4-2.8 2.7-12.5l.4-10.6H399v10.2c0 9.1.2 10.4 2.2 12.5 2.9 3.1 8.7 3.1 11.6 0 1.8-1.9 2.2-3.6 2.4-12.2l.3-10 8.3-.3 8.2-.3V34c0 9.5 1.4 14.2 4.5 15.4 3.5 1.3 7.6.6 10-1.9 2.3-2.2 2.5-3.1 2.5-12.5V25h17v59H214V25h17v10zm193 82.5v16.4l-48.1.3-48.1.3-2.4 2.8c-3.2 3.8-3.1 7.2.5 10.8l2.9 2.9h44.1c24.3 0 44.1.3 44.1.6s-10.8 19.2-24.1 42L368.8 235h-57.6l-23.6-40.4c-13-22.3-23.9-41.2-24.2-42-.5-1.4 1.2-1.6 14.3-1.6 13.6 0 15.1-.2 17.1-2 3-2.8 3.8-6.8 2.1-9.9-2.6-4.5-5.1-5.1-23.6-5.1H256v-33h168v16.5zM357 258v6l-16.5 11c-9 6-16.7 11-17 11-.3 0-.5-7.7-.5-17v-17h34v6zm0 37.5V306l-16.5 11c-9 6-16.7 11-17 11-.3 0-.5-4.8-.5-10.8v-10.7l16.3-10.7c8.9-6 16.5-10.8 17-10.8.4 0 .7 4.7.7 10.5zm0 42V348l-16.5 11c-9 6-16.7 11-17 11-.3 0-.5-4.8-.5-10.8v-10.7l16.3-10.7c8.9-6 16.5-10.8 17-10.8.4 0 .7 4.7.7 10.5zm0 41.8v10.3l-8.5 5.9-8.5 5.8-8-5.3c-4.4-2.9-8-5.5-8-5.9.1-.7 31.1-21 32.3-21.1.4 0 .7 4.6.7 10.3zM186.5 145.4c-12.6 5.8-17 17.9-12.2 33.1 5 16.2 4.5 22.4-2.5 29.7-5.6 5.8-7.8 11-7.8 18.4 0 11.4 7 20.9 17.9 24 6.8 2 12.7 1.3 19.4-2.3 9-4.9 19.8-19.5 23.9-32.3 2.6-8.1 3.5-25.1 1.9-34.6-1.3-7.3-5.4-21.2-7.6-25.4-2-3.8-8.6-9.7-12.7-11.5-5.6-2.3-14.3-1.9-20.3.9zm16.4 16.5c3.5 3.5 7.3 17.5 7.9 29 .8 17-2.8 28-12.8 38.3-4.5 4.7-6.2 5.8-8.7 5.8-3.7 0-8.1-3.5-8.4-6.5-.3-4.3.2-5.6 4.2-9.7 5.2-5.4 7.5-9.9 8.9-17.7 1.3-7.3.3-16.1-3-25.5-2.5-7.4-2.5-9.7.1-13 2.6-3.3 8.8-3.7 11.8-.7z" style="fill:#fff"/><path d="M245 276.7c-3.4 1.2-6 4.7-6 8 0 2.8 2.8 6.8 18.3 26 10 12.5 19.4 23.4 20.8 24.2 5.1 2.8 11.3-1.8 11.1-8.1 0-2.2-4.7-8.7-18.2-25.6-10-12.5-18.7-23-19.3-23.3-2.2-1.2-5.2-1.7-6.7-1.2zm-224.1 1.7c-8.6 3-15.4 11.9-16.5 21.3-.8 6.2 1.7 15.7 6.4 24.8 5.2 10.1 18.1 22.8 28.7 28.3 15 7.6 36.3 12.1 44.7 9.3 16.6-5.5 23-25.5 12.5-39.3-4.3-5.6-9.7-8.5-19.2-10.3-13.8-2.7-21.7-7.6-23-14.3-.3-1.5-1.7-5-3.1-7.9-4.2-8.4-12.1-13.2-21.9-13.2-2.7 0-6.6.6-8.6 1.3zM34.8 296c1.2 1.1 2.4 3.3 2.8 4.8 1.8 8.3 6.5 15 13.7 19.6 6.8 4.2 11.6 6.1 21.3 8.1 9.5 2 12.4 4.2 12.4 9.6 0 2.9-.6 4.2-2.7 5.9-2.5 1.9-3.6 2.1-9 1.6-26.4-2.7-49.6-21.2-52-41.5-.5-4.4-.3-5.2 2-7.5 3.2-3.2 8.4-3.5 11.5-.6zm393-17.6c-3.2 2.4-36.7 44.9-37.3 47.3-1.4 5.5 4.8 11.3 10.3 9.6 1.8-.6 8.3-7.8 20-22.4 9.5-11.7 18-22.6 18.8-24.1 1.8-3.5.9-7.2-2.3-9.8-2.9-2.3-7-2.5-9.5-.6zm-242.5 8.1c-5.3 2.3-6.2 9.2-1.7 13.2 3.3 3 7.8 3 10.9-.2 6.6-6.5-.7-16.7-9.2-13zm302.8-.4c-8.1 3.2-5.8 15.9 2.9 15.9 6.8 0 10.6-8.9 6-13.8-1.2-1.2-2.5-2.2-3-2.2-.4 0-1.4-.2-2.2-.4-.7-.3-2.4 0-3.7.5zm-279.9 27.2c-1.4 1.5-2.2 3.6-2.2 5.8 0 3.2 2.6 6 35.8 39.2 32.6 32.6 36 35.7 39 35.7 4.6 0 6.8-1.4 8.1-5.1.8-2.5.8-3.8-.4-6.3-.9-1.8-17-18.6-35.8-37.4-33.7-33.6-34.4-34.2-38.3-34.2-2.9 0-4.7.6-6.2 2.3zm218.7 32.4c-19.2 19-35.3 35.9-36 37.5-2.3 5.7 3.3 12.2 9.5 11.1 1.4-.3 17.2-15.4 38-36.2 33.4-33.5 35.6-35.9 35.6-39.2 0-4.8-3.3-7.9-8.5-7.9-3.8 0-4.9 1.1-38.6 34.7z" style="fill:#fff"/><path d="m7 388.9-3 2.9v114.4l2.9 2.9 2.9 2.9h492.4l2.9-2.9 2.9-2.9V391.8l-3-2.9-2.9-3-40.3.3c-39.1.3-40.4.4-44.3 2.5-4.7 2.5-9.6 7.5-11.9 12-9 17.8-45.7 33.5-94.4 40.3-69.3 9.7-148-.1-186.3-23.1-9.8-5.9-14.1-9.7-17.6-15.9-3.5-6.1-8-10.7-12.8-13.3-3.9-2.1-5.2-2.2-44.3-2.5l-40.3-.3-2.9 3zm81.4 15.8c.9 1 3.6 4.6 5.8 8.1 14.8 23.1 58.4 40.2 119.3 46.8 20.3 2.1 64.6 2.2 85 0 60.5-6.5 104.5-23.8 119.4-46.9 6.8-10.6 2.9-9.7 40.3-9.7H491v92H21v-92h32.8c30 0 33 .2 34.6 1.7z" style="fill:#fff"/><path d="M40.5 464.5c-3.1 3-3.2 7.3-.4 10.9 1.9 2.4 2.6 2.6 10 2.6 7.1 0 8.2-.3 10.4-2.5 3.3-3.2 3.3-7.8 0-11-2.1-2.2-3.3-2.5-10-2.5s-7.9.3-10 2.5zm41.6.1c-1.2 1.5-2.1 3.9-2.1 5.4 0 1.5.9 3.9 2.1 5.4l2 2.6h66.8l2-2.6c1.2-1.5 2.1-3.9 2.1-5.4 0-1.5-.9-3.9-2.1-5.4l-2-2.6H84.1l-2 2.6z" style="fill:#fff"/></svg>