<?xml version="1.0" encoding="UTF-8"?>
<svg clip-rule="evenodd" fill-rule="evenodd" image-rendering="optimizeQuality" shape-rendering="geometricPrecision" text-rendering="geometricPrecision" version="1.1" viewBox="3907.5 3929 2e4 3133.6" xml:space="preserve"
  xmlns="http://www.w3.org/2000/svg">
  <path style="fill:#6E949A;fill-rule:nonzero" d="m9876 4428-1038 2139c-16 33-40 60-72 80s-68 30-106 30-73-10-105-30c-33-20-57-47-74-80l-1037-2139h445l771 1598 773-1598h443zm625 2218h-398v-2218h398v2218zm3015 0h-400v-1321l-705 1255c-17 32-42 56-72 72-32 17-65 25-101 25-35 0-67-8-97-25-30-16-53-40-71-72l-707-1255v1321h-398v-2046c0-46 14-88 41-124s62-60 106-72c22-6 43-7 64-6 22 2 42 6 62 14s38 19 54 33c17 13 30 30 41 50l905 1591 905-1591c23-39 56-67 97-83 41-17 84-20 129-8 43 12 78 36 106 72 27 36 41 78 41 124v2046zm2761-897c0 135-23 259-69 373-46 113-109 211-191 293-81 83-178 147-290 193-111 46-232 69-364 69h-538c-131 0-253-23-365-69s-209-110-290-193c-82-82-146-180-192-293-46-114-69-238-69-373v-424c0-134 23-258 69-372 46-113 110-212 192-293 81-82 178-147 290-193 112-47 234-70 365-70h538c132 0 253 23 364 70 112 46 209 111 290 193 82 81 145 180 191 293 46 114 69 238 69 372v424zm-397-424c0-79-13-151-38-216-25-64-60-119-105-165-46-46-100-81-164-106-64-26-134-38-210-38h-538c-77 0-148 12-211 38-64 25-119 60-165 106-45 46-81 101-106 165-25 65-37 137-37 216v424c0 79 12 151 37 216 25 64 61 119 106 165 46 46 101 82 165 107 63 25 134 38 211 38h535c77 0 148-13 212-38s118-61 164-107 81-101 106-165c25-65 38-137 38-216v-424zm2980 1150c0 28-6 55-17 80-10 25-25 46-42 64-18 18-39 32-64 42-24 11-50 16-78 16-24 0-49-4-74-14-25-9-47-24-67-45l-1451-1534v1562h-398v-2046c0-41 12-79 35-112 23-34 52-59 88-75 38-16 76-19 116-12 40 8 74 27 103 56l1451 1533v-1562h398v2047zm2566-481c0 79-9 150-29 213-20 64-46 120-79 168-32 49-70 90-114 124s-89 62-136 84c-47 21-95 37-143 48-49 10-94 15-137 15h-1533v-402h1533c76 0 136-23 178-68 42-46 64-106 64-182 0-38-6-72-17-103-12-30-28-57-49-80s-46-40-76-53c-30-12-63-18-100-18h-914c-64 0-133-12-207-35-75-23-144-60-208-112s-116-119-159-203c-42-83-63-185-63-306s21-222 63-306c43-82 95-150 159-202s133-90 208-113c74-23 143-35 207-35h1353v402h-1353c-75 0-134 23-176 70-42 46-64 108-64 184 0 77 22 138 64 183s101 68 176 68h914 3c43 1 88 7 136 17 48 11 96 28 143 50 47 23 93 52 135 86 43 35 81 76 114 125s59 104 79 167c19 63 28 134 28 214zm2481 652h-397v-544h-1397v544h-398v-1109c0-162 28-311 83-447s131-253 229-351 214-174 347-229c134-54 279-82 437-82h896c27 0 53 6 78 16 24 10 46 25 64 43s33 40 43 65 15 51 15 79v2015zm-1794-946h1397v-870h-699c-12 0-38 2-77 6s-84 13-136 27c-51 14-105 36-163 66-57 30-109 72-157 124-48 53-87 119-119 197-30 79-46 175-46 287v163z"/>
  <path style="fill:#27B2D4" d="m3939 6971s1264-919 2006-2914c0 0 44-141 139-127 102 5 83 164 75 172 0 0-380 1328-1561 2552 0 0-244 247-518 366-272 119-141-49-141-49z"/>
  <path style="fill:#6E949A" d="m6237 4178c25-19 52-8 82 68 6 17 11 35 11 52 3 63-22 125-46 184-269 646-571 1279-960 1857-93 138-197 277-349 342-68 29-140 40-210 51 365-377 659-816 903-1278 123-233 233-474 335-717 51-122 100-246 147-369 19-53 50-160 87-190z"/>
  <path style="fill:#27B2D4" d="m6258 4806c77-69 79 80 56 144-172 480-371 957-676 1362-25 33-51 67-87 87-36 21-85 24-118-1 175-211 294-464 410-714 81-176 161-352 241-528 39-88 80-176 119-264 8-22 30-62 55-86z"/>
  <path style="fill:#27B2D4" d="m6348 5144c23 12 93 228 104 262 44 133 83 268 116 404 7 30 14 64-4 89-18 30-61 30-87 9-27-20-42-53-57-87-67-166-103-343-140-521-7-27-11-54-8-80 3-31 20-57 44-73 14-8 23-8 32-3z"/>
  <path style="fill:#6E949A" d="m6388 4988c-4-12-8-27-11-39-14-49 18-121 75-73 20 16 29 41 37 66 91 265 182 528 273 792 9 26 17 52 14 79-4 27-24 54-50 56-36 3-60-37-74-71-108-263-186-537-264-810z"/>
  <path style="fill:#27B2D4" d="m6367 4471s41-67 99-34c58 34 443 1126 468 1218s-52 149-88 108c-22-26-33-70-45-102-30-72-57-145-85-218-67-179-133-360-197-539-18-49-172-410-152-433z"/>
</svg>
